<svg width="540" height="480" viewBox="0 0 540 480" fill="none" xmlns="http://www.w3.org/2000/svg">
<rect width="60" height="60" transform="matrix(-1 0 0 1 300 0)" fill="#D8DC00"/>
<rect width="60" height="60" transform="matrix(-1 0 0 1 240 0)" fill="#D8DC00"/>
<rect width="60" height="60" transform="matrix(-1 0 0 1 180 0)" fill="#D8DC00"/>
<rect width="60" height="60" transform="matrix(-1 0 0 1 360 60)" fill="#D8DC00"/>
<rect width="60" height="60" transform="matrix(-1 0 0 1 300 60)" fill="#D8DC00"/>
<rect width="60" height="60" transform="matrix(-1 0 0 1 240 60)" fill="#D8DC00"/>
<rect width="60" height="60" transform="matrix(-1 0 0 1 180 60)" fill="#D8DC00"/>
<rect width="60" height="60" transform="matrix(-1 0 0 1 120 60)" fill="#D8DC00"/>
<rect width="60" height="60" transform="matrix(-1 0 0 1 420 120)" fill="#D8DC00"/>
<rect width="60" height="60" transform="matrix(-1 0 0 1 360 120)" fill="#D8DC00"/>
<rect width="60" height="60" transform="matrix(-1 0 0 1 300 120)" fill="#D8DC00"/>
<rect width="60" height="60" transform="matrix(-1 0 0 1 240 120)" fill="#D8DC00"/>
<rect width="60" height="60" transform="matrix(-1 0 0 1 180 120)" fill="#D8DC00"/>
<rect width="60" height="60" transform="matrix(-1 0 0 1 120 120)" fill="#D8DC00"/>
<rect width="60" height="60" transform="matrix(-1 0 0 1 60 120)" fill="#D8DC00"/>
<rect width="60" height="60" transform="matrix(-1 0 0 1 420 180)" fill="#D8DC00"/>
<rect width="60" height="60" transform="matrix(-1 0 0 1 360 180)" fill="#D8DC00"/>
<rect width="60" height="60" transform="matrix(-1 0 0 1 300 180)" fill="#231815"/>
<rect width="60" height="60" transform="matrix(-1 0 0 1 240 180)" fill="#D8DC00"/>
<rect width="60" height="60" transform="matrix(-1 0 0 1 180 180)" fill="#231815"/>
<rect width="60" height="60" transform="matrix(-1 0 0 1 120 180)" fill="#D8DC00"/>
<rect width="60" height="60" transform="matrix(-1 0 0 1 60 180)" fill="#D8DC00"/>
<rect width="60" height="60" transform="matrix(-1 0 0 1 420 240)" fill="#D8DC00"/>
<rect width="60" height="60" transform="matrix(-1 0 0 1 360 240)" fill="#D8DC00"/>
<rect width="60" height="60" transform="matrix(-1 0 0 1 300 240)" fill="#D8DC00"/>
<rect width="60" height="60" transform="matrix(-1 0 0 1 240 240)" fill="#D8DC00"/>
<rect width="60" height="60" transform="matrix(-1 0 0 1 180 240)" fill="#D8DC00"/>
<rect width="60" height="60" transform="matrix(-1 0 0 1 120 240)" fill="#D8DC00"/>
<rect width="60" height="60" transform="matrix(-1 0 0 1 60 240)" fill="#D8DC00"/>
<rect width="60" height="60" transform="matrix(-1 0 0 1 420 300)" fill="#D8DC00"/>
<rect width="60" height="60" transform="matrix(-1 0 0 1 360 300)" fill="#D8DC00"/>
<rect width="60" height="60" transform="matrix(-1 0 0 1 300 300)" fill="#D8DC00"/>
<rect width="60" height="60" transform="matrix(-1 0 0 1 240 300)" fill="#D8DC00"/>
<rect width="60" height="60" transform="matrix(-1 0 0 1 180 300)" fill="#D8DC00"/>
<rect width="60" height="60" transform="matrix(-1 0 0 1 120 300)" fill="#D8DC00"/>
<rect width="60" height="60" transform="matrix(-1 0 0 1 60 300)" fill="#D8DC00"/>
<rect width="60" height="60" transform="matrix(-1 0 0 1 420 360)" fill="#D8DC00"/>
<rect width="60" height="60" transform="matrix(-1 0 0 1 300 360)" fill="#D8DC00"/>
<rect width="60" height="60" transform="matrix(-1 0 0 1 180 360)" fill="#D8DC00"/>
<rect width="60" height="60" transform="matrix(-1 0 0 1 60 360)" fill="#D8DC00"/>
<rect width="60" height="60" transform="matrix(-1 0 0 1 420 420)" fill="#D8DC00"/>
<rect width="60" height="60" transform="matrix(-1 0 0 1 300 420)" fill="#D8DC00"/>
<rect width="60" height="60" transform="matrix(-1 0 0 1 180 420)" fill="#D8DC00"/>
<rect width="60" height="60" transform="matrix(-1 0 0 1 60 420)" fill="#D8DC00"/>
<rect width="60" height="60" transform="matrix(-1 0 0 1 480 420)" fill="#D8DC00"/>
<rect width="60" height="60" transform="matrix(-1 0 0 1 540 360)" fill="#D8DC00"/>
</svg>
